#!OML:ASF E:\VariousWalksJay\Project 1\Capture day 1\Session 1\Actor2.ASF
:FULLY-SPECIFIED
:DEGREES
803
root 10.0612 11.2668 25.3582 31.5254 -54.7952 -5.55008
lowerback 40.7182 -4.25946 2.07879
upperback 17.962 -6.38093 -8.77128
thorax -0.996857 -2.97899 -8.09821
lowerneck -0.785643 7.81856 -0.928465
upperneck -35.415 11.8081 1.40095
head -11.6154 5.11093 -0.352911
rclavicle -8.5875e-014 -6.0033e-014
rhumerus -21.9624 2.58452 -69.278
rradius 43.1238
rwrist -12.6129
rhand -18.5082 -4.04475
rfingers 7.12502
rthumb 7.77982 -33.8816
lclavicle -8.5875e-014 -6.0033e-014
lhumerus 73.0882 -47.7621 26.0269
lradius 87.1394
lwrist 12.6862
lhand 9.22305 -7.01254
lfingers 7.12502
lthumb 34.3891 19.684
rfemur -69.2639 -37.9928 -3.4551
rtibia 82.0491
rfoot -14.6166 -2.31001
rtoes -32.5644
lfemur -104.643 36.4373 -20.3644
ltibia 80.5099
lfoot -1.4669 -0.294819
ltoes -12.5921
804
root 10.0324 11.3678 25.5027 32.687 -55.4567 -7.51443
lowerback 40.5131 -3.21497 1.02418
upperback 17.7909 -5.5228 -8.58716
thorax -0.893746 -2.65281 -7.67814
lowerneck -0.690245 7.88672 -0.87282
upperneck -35.1908 11.9831 1.64739
head -11.5607 5.16521 -0.289962
rclavicle -9.54166e-015 1.55052e-014
rhumerus -23.5292 1.85938 -70.7204
rradius 42.1904
rwrist -11.2488
rhand -17.8134 -3.20645
rfingers 7.12502
rthumb 8.45043 -33.0174
lclavicle -9.54166e-015 1.55052e-014
lhumerus 74.3611 -48.5246 25.2601
lradius 87.203
lwrist 12.0783
lhand 8.19506 -7.55726
lfingers 7.12502
lthumb 33.4125 19.355
rfemur -67.4544 -35.8175 -3.61878
rtibia 80.3554
rfoot -14.3283 -3.05838
rtoes -31.9216
lfemur -104.048 38.0233 -20.3304
ltibia 80.899
lfoot -1.76506 -0.832574
ltoes -11.8352
805
root 10.0366 11.4601 25.6818 33.0653 -55.2756 -8.23457
lowerback 39.975 -2.8431 0.838621
upperback 17.7302 -5.11842 -8.45329
thorax -0.720197 -2.47849 -7.60498
lowerneck -0.692312 7.87705 -0.244493
upperneck -34.8875 11.9764 1.57411
head -11.3857 5.1027 -0.409775
rclavicle -1.90833e-014 -9.30312e-014
rhumerus -25.1492 0.489394 -71.9357
rradius 41.4259
rwrist -10.0862
rhand -17.312 -2.78086
rfingers 7.12502
rthumb 8.93424 -32.5717
lclavicle -1.90833e-014 -9.30312e-014
lhumerus 76.2833 -49.3408 24.0863
lradius 87.2561
lwrist 12.0704
lhand 8.32318 -7.90713
lfingers 7.12502
lthumb 33.5343 18.9788
rfemur -65.2875 -34.9556 -4.23983
rtibia 78.4233
rfoot -13.749 -3.6271
rtoes -31.2293
lfemur -103.795 38.1079 -20.601
ltibia 81.3452
lfoot -2.3205 -0.962595
ltoes -11.9155
806
root 10.0439 11.5569 25.8813 33.1709 -55.0883 -8.77394
lowerback 39.4871 -2.88174 0.788728
upperback 17.6923 -5.16486 -8.4889
thorax -0.626837 -2.50706 -7.61481
lowerneck -0.660782 7.97273 -0.385252
upperneck -34.6078 12.2049 1.95336
head -11.3226 5.19405 -0.268098
rclavicle 2.8625e-014 7.196e-014
rhumerus -26.4637 -0.21399 -73.2004
rradius 40.8218
rwrist -9.39523
rhand -17.2479 -2.58027
rfingers 7.12502
rthumb 8.99615 -32.3684
lclavicle 2.8625e-014 7.196e-014
lhumerus 77.2107 -49.8048 23.4795
lradius 87.2544
lwrist 11.9786
lhand 7.85317 -8.17473
lfingers 7.12502
lthumb 33.0874 18.807
rfemur -62.7387 -34.105 -5.19753
rtibia 76.3037
rfoot -13.1937 -3.81123
rtoes -29.3542
lfemur -103.251 38.0309 -20.7772
ltibia 81.8359
lfoot -3.1057 -1.11723
ltoes -11.3828
807
root 10.0644 11.6613 26.0962 32.9632 -54.6575 -9.03035
lowerback 39.1068 -3.2265 1.0634
upperback 17.6664 -5.46886 -8.5956
thorax -0.619853 -2.63565 -7.77377
lowerneck -0.637637 8.10808 -0.496122
upperneck -34.2561 12.4986 2.36251
head -11.2325 5.31159 -0.125693
rclavicle -1.59028e-014 -1.61016e-013
rhumerus -27.6844 -1.00536 -74.379
rradius 40.2853
rwrist -9.27092
rhand -17.1809 -2.31341
rfingers 7.12502
rthumb 9.06076 -32.0988
lclavicle -1.59028e-014 -1.61016e-013
lhumerus 77.8216 -50.2229 23.1035
lradius 87.2143
lwrist 12.0648
lhand 7.64724 -8.42588
lfingers 7.12502
lthumb 32.8916 18.5971
rfemur -59.6796 -33.3441 -6.43281
rtibia 73.8433
rfoot -12.6129 -3.96871
rtoes -28.4478
lfemur -102.456 37.4921 -20.8013
ltibia 82.311
lfoot -4.05335 -1.00141
ltoes -11.2101
808
root 10.0785 11.7699 26.2802 33.3331 -54.5667 -9.53394
lowerback 38.3308 -3.21231 0.750851
upperback 17.5174 -5.52209 -8.61548
thorax -0.534458 -2.68351 -7.63384
lowerneck -0.593582 8.24653 -0.530614
upperneck -33.8713 12.8015 2.78955
head -11.1319 5.42199 0.00862266
rclavicle 9.54166e-015 -6.12257e-014
rhumerus -28.8725 -1.6832 -75.585
rradius 39.8519
rwrist -9.2457
rhand -17.3802 -2.27106
rfingers 7.12502
rthumb 8.86842 -32.0647
lclavicle 9.54166e-015 -6.12257e-014
lhumerus 78.2003 -50.5352 22.7147
lradius 87.0909
lwrist 12.6078
lhand 7.61105 -8.5867
lfingers 7.12502
lthumb 32.8571 18.4435
rfemur -57.3099 -32.1045 -7.30499
rtibia 71.2675
rfoot -12.0849 -4.24238
rtoes -27.2661
lfemur -102.206 37.5795 -21.3294
ltibia 82.6576
lfoot -4.89983 -1.20029
ltoes -11.2768
809
root 10.0944 11.885 26.4936 33.5203 -54.489 -10.1313
lowerback 37.8 -3.10307 0.722014
upperback 17.4344 -5.37662 -8.52828
thorax -0.428261 -2.62351 -7.59457
lowerneck -0.589521 8.24876 -0.225016
upperneck -33.4705 12.8271 2.92283
head -10.962 5.397 0.0126763
rclavicle -1.59028e-014 1.0138e-013
rhumerus -30.2015 -2.77331 -76.44
rradius 39.5667
rwrist -9.26562
rhand -17.899 -2.24223
rfingers 7.12502
rthumb 8.36782 -32.0565
lclavicle -1.59028e-014 1.0138e-013
lhumerus 79.1044 -50.9841 22.2512
lradius 86.9739
lwrist 13.5155
lhand 7.89737 -8.52883
lfingers 7.12502
lthumb 33.1294 18.444
rfemur -54.4338 -30.7643 -8.31424
rtibia 68.3373
rfoot -11.4277 -4.43773
rtoes -26.6037
lfemur -101.44 37.5537 -21.4735
ltibia 83.0598
lfoot -5.92635 -1.25822
ltoes -10.6883
810
root 10.1103 12.0066 26.7119 34.0022 -54.7536 -11.1858
lowerback 37.4236 -2.88887 0.528081
upperback 17.2775 -5.17499 -8.46782
thorax -0.432999 -2.5499 -7.5052
lowerneck -0.591939 8.32815 -0.0355058
upperneck -33.0381 12.9627 3.08135
head -10.7933 5.43781 0.0342828
rclavicle 6.36111e-014 -2.62396e-014
rhumerus -31.2454 -3.84257 -77.1678
rradius 39.1981
rwrist -9.1376
rhand -17.8879 -2.57418
rfingers 7.12502
rthumb 8.37851 -32.388
lclavicle 6.36111e-014 -2.62396e-014
lhumerus 79.3844 -51.3451 22.2185
lradius 86.791
lwrist 14.6067
lhand 8.21669 -8.41005
lfingers 7.12502
lthumb 33.433 18.4978
rfemur -51.7228 -28.959 -9.04382
rtibia 65.1676
rfoot -10.6004 -4.92186
rtoes -27.0536
lfemur -100.435 37.9493 -21.4065
ltibia 83.4493
lfoot -6.97753 -1.27617
ltoes -9.98113
811
root 10.1416 12.1195 26.9475 34.3123 -54.7208 -11.8156
lowerback 36.8418 -3.32914 0.822322
upperback 17.1051 -5.59664 -8.60879
thorax -0.535867 -2.73898 -7.67571
lowerneck -0.538793 8.57017 -0.54855
upperneck -32.625 13.4023 3.61139
head -10.7355 5.66294 0.264449
rclavicle -3.81667e-014 7.83212e-014
rhumerus -32.0231 -4.36751 -77.8687
rradius 38.7508
rwrist -8.75052
rhand -17.1993 -2.35962
rfingers 7.12502
rthumb 9.04301 -32.1458
lclavicle -3.81667e-014 7.83212e-014
lhumerus 78.4837 -51.4735 22.9228
lradius 86.5354
lwrist 15.7063
lhand 8.45009 -8.38185
lfingers 7.12502
lthumb 33.6549 18.4779
rfemur -48.9332 -27.6835 -9.83778
rtibia 61.7468
rfoot -9.5332 -5.31436
rtoes -25.8504
lfemur -99.6361 37.746 -21.4827
ltibia 83.8554
lfoot -8.08609 -1.10306
ltoes -9.41035
812
root 10.1463 12.2498 27.1864 34.8278 -55.326 -13.3705
lowerback 36.827 -3.03619 0.598466
upperback 16.9456 -5.33671 -8.55419
thorax -0.646043 -2.64443 -7.58171
lowerneck -0.497189 8.71055 -0.622045
upperneck -32.1831 13.6311 3.8567
head -10.6044 5.7699 0.345256
rclavicle 3.18055e-014 -9.14409e-015
rhumerus -32.907 -5.4139 -78.2593
rradius 38.4387
rwrist -8.05604
rhand -16.5492 -2.29638
rfingers 7.12502
rthumb 9.67034 -32.0544
lclavicle 3.18055e-014 -9.14409e-015
lhumerus 77.9998 -51.7258 23.4357
lradius 86.3336
lwrist 16.7563
lhand 8.69342 -8.27057
lfingers 7.12502
lthumb 33.8861 18.5384
rfemur -45.9895 -25.4074 -10.3845
rtibia 58.1307
rfoot -8.51647 -5.87241
rtoes -23.5135
lfemur -97.8882 38.5566 -20.9789
ltibia 84.2787
lfoot -9.37088 -0.998242
ltoes -9.82712
813
root 10.1779 12.3672 27.4332 35.3663 -55.7066 -14.3999
lowerback 36.3867 -2.94781 0.70221
upperback 16.7697 -5.18958 -8.48531
thorax -0.675834 -2.57995 -7.62259
lowerneck -0.505528 8.80056 -0.460267
upperneck -31.7416 13.7373 3.89665
head -10.4263 5.81621 0.331946
rclavicle -6.99722e-014 -2.70347e-014
rhumerus -33.7338 -6.78659 -78.3567
rradius 38.0457
rwrist -6.90188
rhand -16.0185 -1.87831
rfingers 7.12502
rthumb 10.1823 -31.6119
lclavicle -6.99722e-014 -2.70347e-014
lhumerus 77.8396 -51.9255 23.7605
lradius 86.0711
lwrist 17.4601
lhand 8.70921 -8.32132
lfingers 7.12502
lthumb 33.9011 18.4844
rfemur -43.507 -23.8419 -10.9
rtibia 54.4804
rfoot -7.26216 -6.78962
rtoes -20.4052
lfemur -96.8748 38.7833 -21.0858
ltibia 84.713
lfoot -10.5119 -0.57792
ltoes -10.7969
814
root 10.2076 12.4905 27.6776 35.9428 -56.2026 -15.4026
lowerback 35.8872 -3.92336 0.701327
upperback 16.4265 -6.38744 -8.9935
thorax -1.12153 -3.15782 -7.74292
lowerneck -0.563042 9.5504 -2.44564
upperneck -31.0465 15.0522 5.31781
head -10.4885 6.53892 1.01682
rclavicle -6.67916e-014 -3.73715e-014
rhumerus -33.8106 -5.44946 -79.3481
rradius 37.4063
rwrist -5.66807
rhand -15.6147 -1.33739
rfingers 7.12502
rthumb 10.5718 -31.0515
lclavicle -6.67916e-014 -3.73715e-014
lhumerus 73.47 -51.275 26.4315
lradius 85.7404
lwrist 17.5829
lhand 8.62506 -8.52339
lfingers 7.12502
lthumb 33.8211 18.2999
rfemur -41.1959 -22.2034 -11.3686
rtibia 50.7654
rfoot -6.06905 -8.04399
rtoes -15.9532
lfemur -95.7228 39.0673 -21.1175
ltibia 85.0103
lfoot -11.5344 -0.251042
ltoes -10.1258
